<mxfile host="app.diagrams.net" modified="2024-04-22T06:57:16.206Z" agent="Mozilla/5.0 (Macintosh; Intel Mac OS X 10_15_7) AppleWebKit/537.36 (KHTML, like Gecko) Chrome/123.0.0.0 Safari/537.36" etag="fGfQWwCLof7-L2KVlGWK" version="24.2.3" type="github">
  <diagram name="第 1 页" id="X-aWDRif7fTirK9xSBY9">
    <mxGraphModel dx="2087" dy="2103" grid="1" gridSize="10" guides="1" tooltips="1" connect="1" arrows="1" fold="1" page="1" pageScale="1" pageWidth="827" pageHeight="1169" math="0" shadow="0">
      <root>
        <mxCell id="0" />
        <mxCell id="1" parent="0" />
        <mxCell id="wCrlUD02cVlDB_2Lq__C-1" value="" style="rounded=0;whiteSpace=wrap;html=1;shadow=1;glass=0;sketch=0;fontFamily=Helvetica;fontSize=15;movable=0;resizable=0;rotatable=0;deletable=0;editable=0;connectable=0;" parent="1" vertex="1">
          <mxGeometry x="196.5" y="-108" width="1940" height="850" as="geometry" />
        </mxCell>
        <mxCell id="wCrlUD02cVlDB_2Lq__C-2" style="edgeStyle=orthogonalEdgeStyle;rounded=0;orthogonalLoop=1;jettySize=auto;html=1;entryX=0;entryY=0.5;entryDx=0;entryDy=0;fontFamily=Helvetica;fontSize=15;" parent="1" source="wCrlUD02cVlDB_2Lq__C-3" target="wCrlUD02cVlDB_2Lq__C-6" edge="1">
          <mxGeometry relative="1" as="geometry">
            <mxPoint x="1019" y="148.49999999999955" as="targetPoint" />
          </mxGeometry>
        </mxCell>
        <mxCell id="wCrlUD02cVlDB_2Lq__C-3" value="&lt;p style=&quot;margin: 0px ; margin-top: 4px ; text-align: center&quot;&gt;&lt;b&gt;TUICallKitImpl&lt;/b&gt;&lt;/p&gt;&lt;hr size=&quot;1&quot;&gt;&lt;p style=&quot;margin: 0px ; margin-left: 4px&quot;&gt;&lt;/p&gt;&lt;p style=&quot;margin: 0px ; margin-left: 4px&quot;&gt;&lt;/p&gt;&lt;span style=&quot;font-weight: 700 ; text-align: center&quot;&gt;&amp;nbsp;&lt;/span&gt;&lt;span style=&quot;text-align: center&quot;&gt;+&amp;nbsp;&lt;/span&gt;&lt;span style=&quot;font-family: &amp;quot;helvetica neue&amp;quot; ; font-size: 13px&quot;&gt;shareInstance (）&lt;br&gt;&lt;/span&gt;&lt;span style=&quot;text-align: center&quot;&gt;&amp;nbsp;+ call()&lt;br&gt;&lt;/span&gt;&lt;span style=&quot;font-weight: 700 ; text-align: center&quot;&gt;&lt;br&gt;&lt;/span&gt;&lt;div&gt;&lt;br&gt;&lt;/div&gt;" style="verticalAlign=top;align=left;overflow=fill;fontSize=12;fontFamily=Helvetica;html=1;fontStyle=0" parent="1" vertex="1">
          <mxGeometry x="422" y="109" width="235" height="78" as="geometry" />
        </mxCell>
        <mxCell id="wCrlUD02cVlDB_2Lq__C-4" value="&lt;p style=&quot;margin: 0px ; margin-top: 4px ; text-align: center&quot;&gt;&lt;span&gt;&lt;b&gt;TUICallKit&lt;/b&gt;&lt;/span&gt;&lt;/p&gt;&lt;hr size=&quot;1&quot;&gt;&lt;p style=&quot;margin: 0px ; margin-left: 4px&quot;&gt;&lt;b&gt;&lt;br&gt;&lt;/b&gt;&lt;/p&gt;&lt;hr size=&quot;1&quot;&gt;&lt;p style=&quot;margin: 0px ; margin-left: 4px&quot;&gt;&lt;/p&gt;&lt;b&gt;&lt;br&gt;&lt;/b&gt;&lt;p style=&quot;margin: 0px ; margin-left: 4px&quot;&gt;&lt;br&gt;&lt;/p&gt;" style="verticalAlign=top;align=left;overflow=fill;fontSize=12;fontFamily=Helvetica;html=1;fontStyle=0;fillColor=#d5e8d4;strokeColor=#82b366;" parent="1" vertex="1">
          <mxGeometry x="445.5" y="-34" width="188" height="77" as="geometry" />
        </mxCell>
        <mxCell id="wCrlUD02cVlDB_2Lq__C-5" value="" style="endArrow=block;dashed=1;endFill=0;endSize=12;html=1;rounded=0;exitX=0.5;exitY=0;exitDx=0;exitDy=0;entryX=0.5;entryY=1;entryDx=0;entryDy=0;" parent="1" source="wCrlUD02cVlDB_2Lq__C-3" target="wCrlUD02cVlDB_2Lq__C-4" edge="1">
          <mxGeometry width="160" relative="1" as="geometry">
            <mxPoint x="594.5" y="84" as="sourcePoint" />
            <mxPoint x="754.5" y="84" as="targetPoint" />
          </mxGeometry>
        </mxCell>
        <mxCell id="wCrlUD02cVlDB_2Lq__C-6" value="&lt;p style=&quot;margin: 0px ; margin-top: 4px ; text-align: center&quot;&gt;&lt;b&gt;CallKitActivtiy&lt;/b&gt;&lt;/p&gt;&lt;hr size=&quot;1&quot;&gt;&lt;p style=&quot;margin: 0px ; margin-left: 4px&quot;&gt;&lt;/p&gt;&lt;p style=&quot;margin: 0px ; margin-left: 4px&quot;&gt;&lt;/p&gt;&lt;span style=&quot;font-weight: 700 ; text-align: center&quot;&gt;&amp;nbsp;&lt;/span&gt;&lt;span style=&quot;text-align: center&quot;&gt;+ onCreate&lt;/span&gt;&lt;span style=&quot;font-family: &amp;quot;helvetica neue&amp;quot; ; font-size: 13px&quot;&gt;&amp;nbsp;(）&lt;/span&gt;&lt;span style=&quot;text-align: center&quot;&gt;&lt;br&gt;&lt;/span&gt;&lt;span style=&quot;font-weight: 700 ; text-align: center&quot;&gt;&lt;br&gt;&lt;/span&gt;&lt;div&gt;&lt;br&gt;&lt;/div&gt;" style="verticalAlign=top;align=left;overflow=fill;fontSize=12;fontFamily=Helvetica;html=1;fontStyle=0" parent="1" vertex="1">
          <mxGeometry x="1019" y="143" width="180.5" height="66" as="geometry" />
        </mxCell>
        <mxCell id="wCrlUD02cVlDB_2Lq__C-7" value="&lt;p style=&quot;margin: 0px ; margin-top: 4px ; text-align: center&quot;&gt;&lt;b&gt;VideoFactory&lt;/b&gt;&lt;/p&gt;&lt;hr size=&quot;1&quot;&gt;&lt;p style=&quot;margin: 0px ; margin-left: 4px&quot;&gt;&lt;/p&gt;&lt;p style=&quot;margin: 0px ; margin-left: 4px&quot;&gt;&lt;/p&gt;&lt;span style=&quot;font-weight: 700 ; text-align: center&quot;&gt;&amp;nbsp;&lt;/span&gt;&lt;span style=&quot;text-align: center&quot;&gt;+ createVideoView()&lt;br&gt;&lt;/span&gt;&lt;span style=&quot;text-align: center&quot;&gt;&amp;nbsp;+ destoryVideoView()&lt;br&gt;&lt;/span&gt;" style="verticalAlign=top;align=left;overflow=fill;fontSize=12;fontFamily=Helvetica;html=1;fontStyle=0" parent="1" vertex="1">
          <mxGeometry x="1514.75" y="145" width="180.5" height="66" as="geometry" />
        </mxCell>
        <mxCell id="wCrlUD02cVlDB_2Lq__C-8" value="&lt;p style=&quot;margin: 0px ; margin-top: 4px ; text-align: center&quot;&gt;&lt;b&gt;VideoView&lt;/b&gt;&lt;/p&gt;&lt;hr size=&quot;1&quot;&gt;&lt;p style=&quot;margin: 0px ; margin-left: 4px&quot;&gt;&lt;/p&gt;&lt;p style=&quot;margin: 0px ; margin-left: 4px&quot;&gt;&lt;/p&gt;&lt;span style=&quot;font-weight: 700 ; text-align: center&quot;&gt;&amp;nbsp;&lt;/span&gt;&lt;span style=&quot;text-align: center&quot;&gt;+ mVideoViewModel&lt;/span&gt;&lt;span style=&quot;text-align: center&quot;&gt;&lt;br&gt;&lt;/span&gt;" style="verticalAlign=top;align=left;overflow=fill;fontSize=12;fontFamily=Helvetica;html=1;fontStyle=0" parent="1" vertex="1">
          <mxGeometry x="1517.75" y="266" width="180.5" height="66" as="geometry" />
        </mxCell>
        <mxCell id="wCrlUD02cVlDB_2Lq__C-9" value="&lt;p style=&quot;margin: 0px ; margin-top: 4px ; text-align: center&quot;&gt;&lt;b&gt;VideoViewModel&lt;/b&gt;&lt;/p&gt;&lt;hr size=&quot;1&quot;&gt;&lt;p style=&quot;margin: 0px ; margin-left: 4px&quot;&gt;&lt;/p&gt;&lt;p style=&quot;margin: 0px ; margin-left: 4px&quot;&gt;&lt;/p&gt;&lt;span style=&quot;font-weight: 700 ; text-align: center&quot;&gt;&amp;nbsp;&lt;/span&gt;&lt;span style=&quot;text-align: center;&quot;&gt;+ mVideoStatus：&lt;/span&gt;&lt;span style=&quot;text-align: center;&quot;&gt;LiveData&amp;lt;Enum&amp;gt;&lt;/span&gt;&lt;span style=&quot;text-align: center&quot;&gt;&lt;br&gt;&lt;/span&gt;" style="verticalAlign=top;align=left;overflow=fill;fontSize=12;fontFamily=Helvetica;html=1;fontStyle=0" parent="1" vertex="1">
          <mxGeometry x="1490" y="407.5" width="240" height="74.5" as="geometry" />
        </mxCell>
        <mxCell id="wCrlUD02cVlDB_2Lq__C-10" value="&lt;p style=&quot;margin: 0px ; margin-top: 4px ; text-align: center&quot;&gt;&lt;b&gt;CallBusinessService&lt;/b&gt;&lt;/p&gt;&lt;hr size=&quot;1&quot;&gt;&lt;p style=&quot;margin: 0px ; margin-left: 4px&quot;&gt;&lt;/p&gt;&lt;p style=&quot;margin: 0px ; margin-left: 4px&quot;&gt;&lt;/p&gt;&lt;span style=&quot;font-weight: 700 ; text-align: center&quot;&gt;&amp;nbsp;&lt;/span&gt;&lt;span style=&quot;text-align: center&quot;&gt;+ accept()&lt;/span&gt;&lt;span style=&quot;text-align: center&quot;&gt;&lt;br&gt;&amp;nbsp;+ reject()&lt;br&gt;&lt;br&gt;&amp;nbsp;+ onCallReceived()&lt;br&gt;&lt;/span&gt;&lt;span style=&quot;text-align: center&quot;&gt;&amp;nbsp;+ onCallCancelled()&lt;br&gt;&amp;nbsp;+ onCallBegin()&lt;br&gt;&amp;nbsp;+ onCallEnd()&lt;br&gt;&lt;/span&gt;" style="verticalAlign=top;align=left;overflow=fill;fontSize=12;fontFamily=Helvetica;html=1;fontStyle=0" parent="1" vertex="1">
          <mxGeometry x="1007.63" y="578" width="212.37" height="145" as="geometry" />
        </mxCell>
        <mxCell id="wCrlUD02cVlDB_2Lq__C-11" value="" style="endArrow=diamondThin;endFill=0;endSize=24;html=1;rounded=0;exitX=0.5;exitY=0;exitDx=0;exitDy=0;entryX=0.5;entryY=1;entryDx=0;entryDy=0;" parent="1" source="wCrlUD02cVlDB_2Lq__C-9" target="wCrlUD02cVlDB_2Lq__C-8" edge="1">
          <mxGeometry width="160" relative="1" as="geometry">
            <mxPoint x="1181" y="282" as="sourcePoint" />
            <mxPoint x="1341" y="282" as="targetPoint" />
          </mxGeometry>
        </mxCell>
        <mxCell id="wCrlUD02cVlDB_2Lq__C-12" value="&lt;b&gt;&lt;font style=&quot;font-size: 16px;&quot;&gt;TUICallKit&lt;/font&gt;&lt;/b&gt;" style="text;html=1;strokeColor=none;fillColor=none;align=center;verticalAlign=middle;whiteSpace=wrap;rounded=0;" parent="1" vertex="1">
          <mxGeometry x="200.75" y="-50" width="120" height="30" as="geometry" />
        </mxCell>
        <mxCell id="wCrlUD02cVlDB_2Lq__C-13" value="&lt;span style=&quot;font-size: 10px;&quot;&gt;1. ViewModel&amp;nbsp; 可以直接操作 CallEngine，因为CallEngine 是单例，&lt;br&gt;2. ViewModel 提供 LiveData 类型的变量，交给 View 来注册监听；&lt;br&gt;3. ViewModel 通过 TUINotification 的总线结构，来接收 CallEngineService 的发送过来的事件监听&lt;br&gt;&lt;/span&gt;" style="text;html=1;strokeColor=#d6b656;fillColor=#fff2cc;align=left;verticalAlign=middle;whiteSpace=wrap;rounded=1;fontFamily=Helvetica;fontSize=16;glass=0;shadow=1;" parent="1" vertex="1">
          <mxGeometry x="1310" y="560" width="433" height="100" as="geometry" />
        </mxCell>
        <mxCell id="wCrlUD02cVlDB_2Lq__C-14" value="&lt;p style=&quot;margin: 0px ; margin-top: 4px ; text-align: center&quot;&gt;&lt;b&gt;FuncationView&lt;/b&gt;&lt;/p&gt;&lt;hr size=&quot;1&quot;&gt;&lt;p style=&quot;margin: 0px ; margin-left: 4px&quot;&gt;&lt;/p&gt;&lt;p style=&quot;margin: 0px ; margin-left: 4px&quot;&gt;&lt;/p&gt;&lt;span style=&quot;font-weight: 700 ; text-align: center&quot;&gt;&amp;nbsp;&lt;/span&gt;&lt;span style=&quot;text-align: center&quot;&gt;+ mFuncationViewModel&lt;/span&gt;&lt;span style=&quot;text-align: center&quot;&gt;&lt;br&gt;&lt;/span&gt;" style="verticalAlign=top;align=left;overflow=fill;fontSize=12;fontFamily=Helvetica;html=1;fontStyle=0" parent="1" vertex="1">
          <mxGeometry x="803" y="284" width="180.5" height="66" as="geometry" />
        </mxCell>
        <mxCell id="wCrlUD02cVlDB_2Lq__C-15" value="&lt;p style=&quot;margin: 0px ; margin-top: 4px ; text-align: center&quot;&gt;&lt;b&gt;FuncationViewModel&lt;/b&gt;&lt;/p&gt;&lt;hr size=&quot;1&quot;&gt;&lt;p style=&quot;margin: 0px ; margin-left: 4px&quot;&gt;&lt;/p&gt;&lt;p style=&quot;margin: 0px ; margin-left: 4px&quot;&gt;&lt;/p&gt;&lt;span style=&quot;font-weight: 700 ; text-align: center&quot;&gt;&amp;nbsp;&lt;/span&gt;&lt;span style=&quot;text-align: center;&quot;&gt;+ mCallStatus：&lt;/span&gt;&lt;span style=&quot;text-align: center;&quot;&gt;LiveData&amp;lt;Enum&amp;gt;&lt;/span&gt;&lt;span style=&quot;text-align: center&quot;&gt;&lt;br&gt;&amp;nbsp;+ accept() : void&lt;br&gt;&lt;/span&gt;" style="verticalAlign=top;align=left;overflow=fill;fontSize=12;fontFamily=Helvetica;html=1;fontStyle=0" parent="1" vertex="1">
          <mxGeometry x="800" y="420" width="188" height="67" as="geometry" />
        </mxCell>
        <mxCell id="wCrlUD02cVlDB_2Lq__C-16" value="" style="endArrow=diamondThin;endFill=0;endSize=24;html=1;rounded=0;exitX=0.5;exitY=0;exitDx=0;exitDy=0;entryX=0.5;entryY=1;entryDx=0;entryDy=0;" parent="1" source="wCrlUD02cVlDB_2Lq__C-15" target="wCrlUD02cVlDB_2Lq__C-14" edge="1">
          <mxGeometry width="160" relative="1" as="geometry">
            <mxPoint x="880" y="387" as="sourcePoint" />
            <mxPoint x="1040" y="387" as="targetPoint" />
          </mxGeometry>
        </mxCell>
        <mxCell id="wCrlUD02cVlDB_2Lq__C-17" value="&lt;p style=&quot;margin: 0px ; margin-top: 4px ; text-align: center&quot;&gt;&lt;b&gt;WindowManager&lt;/b&gt;&lt;/p&gt;&lt;hr size=&quot;1&quot;&gt;&lt;p style=&quot;margin: 0px ; margin-left: 4px&quot;&gt;&lt;/p&gt;&lt;p style=&quot;margin: 0px ; margin-left: 4px&quot;&gt;&lt;/p&gt;&lt;span style=&quot;font-weight: 700 ; text-align: center&quot;&gt;&amp;nbsp;&lt;/span&gt;&lt;span style=&quot;text-align: center&quot;&gt;+ onCreate&lt;/span&gt;&lt;span style=&quot;font-family: &amp;quot;helvetica neue&amp;quot; ; font-size: 13px&quot;&gt;&amp;nbsp;(）&lt;/span&gt;&lt;span style=&quot;text-align: center&quot;&gt;&lt;br&gt;&lt;/span&gt;&lt;span style=&quot;font-weight: 700 ; text-align: center&quot;&gt;&lt;br&gt;&lt;/span&gt;&lt;div&gt;&lt;br&gt;&lt;/div&gt;" style="verticalAlign=top;align=left;overflow=fill;fontSize=12;fontFamily=Helvetica;html=1;fontStyle=0" parent="1" vertex="1">
          <mxGeometry x="1509.5" y="32" width="180" height="61" as="geometry" />
        </mxCell>
        <mxCell id="wCrlUD02cVlDB_2Lq__C-18" value="&lt;p style=&quot;margin: 0px ; margin-top: 4px ; text-align: center&quot;&gt;&lt;b&gt;FloatView&lt;/b&gt;&lt;/p&gt;&lt;hr size=&quot;1&quot;&gt;&lt;p style=&quot;margin: 0px ; margin-left: 4px&quot;&gt;&lt;/p&gt;&lt;p style=&quot;margin: 0px ; margin-left: 4px&quot;&gt;&lt;/p&gt;&lt;span style=&quot;font-weight: 700 ; text-align: center&quot;&gt;&amp;nbsp;&lt;/span&gt;&lt;span style=&quot;text-align: center&quot;&gt;+ mFloatViewModel&lt;/span&gt;&lt;span style=&quot;text-align: center&quot;&gt;&lt;br&gt;&lt;/span&gt;" style="verticalAlign=top;align=left;overflow=fill;fontSize=12;fontFamily=Helvetica;html=1;fontStyle=0" parent="1" vertex="1">
          <mxGeometry x="1023.25" y="374" width="180.5" height="70" as="geometry" />
        </mxCell>
        <mxCell id="wCrlUD02cVlDB_2Lq__C-19" value="&lt;p style=&quot;margin: 0px ; margin-top: 4px ; text-align: center&quot;&gt;&lt;b&gt;FloatViewModel&lt;/b&gt;&lt;/p&gt;&lt;hr size=&quot;1&quot;&gt;&lt;p style=&quot;margin: 0px ; margin-left: 4px&quot;&gt;&lt;/p&gt;&lt;p style=&quot;margin: 0px ; margin-left: 4px&quot;&gt;&lt;/p&gt;&lt;span style=&quot;font-weight: 700 ; text-align: center&quot;&gt;&amp;nbsp;&lt;/span&gt;&lt;span style=&quot;text-align: center;&quot;&gt;+ mCallStatus：&lt;/span&gt;&lt;span style=&quot;text-align: center;&quot;&gt;LiveData&amp;lt;Enum&amp;gt;&lt;/span&gt;&lt;span style=&quot;text-align: center&quot;&gt;&lt;br&gt;&amp;nbsp;+ showFloatView() : void&lt;br&gt;&amp;nbsp;+ hideFloatView():void&lt;br&gt;&lt;/span&gt;" style="verticalAlign=top;align=left;overflow=fill;fontSize=12;fontFamily=Helvetica;html=1;fontStyle=0" parent="1" vertex="1">
          <mxGeometry x="993.25" y="493.5" width="240" height="74.5" as="geometry" />
        </mxCell>
        <mxCell id="wCrlUD02cVlDB_2Lq__C-20" value="" style="endArrow=diamondThin;endFill=0;endSize=24;html=1;rounded=0;exitX=0.5;exitY=0;exitDx=0;exitDy=0;entryX=0.5;entryY=1;entryDx=0;entryDy=0;" parent="1" source="wCrlUD02cVlDB_2Lq__C-19" target="wCrlUD02cVlDB_2Lq__C-18" edge="1">
          <mxGeometry width="160" relative="1" as="geometry">
            <mxPoint x="1121.25" y="468" as="sourcePoint" />
            <mxPoint x="1281.25" y="468" as="targetPoint" />
          </mxGeometry>
        </mxCell>
        <mxCell id="wCrlUD02cVlDB_2Lq__C-21" value="Use" style="endArrow=open;endSize=12;dashed=1;html=1;rounded=0;entryX=0.5;entryY=0;entryDx=0;entryDy=0;exitX=0.25;exitY=1;exitDx=0;exitDy=0;" parent="1" source="wCrlUD02cVlDB_2Lq__C-6" target="wCrlUD02cVlDB_2Lq__C-14" edge="1">
          <mxGeometry width="160" relative="1" as="geometry">
            <mxPoint x="1102" y="210" as="sourcePoint" />
            <mxPoint x="1010" y="430" as="targetPoint" />
            <Array as="points">
              <mxPoint x="1064" y="260" />
              <mxPoint x="890" y="260" />
            </Array>
          </mxGeometry>
        </mxCell>
        <mxCell id="wCrlUD02cVlDB_2Lq__C-22" value="Use" style="endArrow=open;endSize=12;dashed=1;html=1;rounded=0;exitX=0.5;exitY=1;exitDx=0;exitDy=0;entryX=0.5;entryY=0;entryDx=0;entryDy=0;" parent="1" source="wCrlUD02cVlDB_2Lq__C-6" target="wCrlUD02cVlDB_2Lq__C-34" edge="1">
          <mxGeometry width="160" relative="1" as="geometry">
            <mxPoint x="850" y="420" as="sourcePoint" />
            <mxPoint x="1109" y="260" as="targetPoint" />
          </mxGeometry>
        </mxCell>
        <mxCell id="wCrlUD02cVlDB_2Lq__C-23" value="Use" style="endArrow=open;endSize=12;dashed=1;html=1;rounded=0;entryX=0;entryY=0;entryDx=0;entryDy=0;exitX=1;exitY=0.604;exitDx=0;exitDy=0;exitPerimeter=0;" parent="1" source="wCrlUD02cVlDB_2Lq__C-47" target="wCrlUD02cVlDB_2Lq__C-8" edge="1">
          <mxGeometry width="160" relative="1" as="geometry">
            <mxPoint x="1151" y="240" as="sourcePoint" />
            <mxPoint x="1368.25" y="297" as="targetPoint" />
            <Array as="points">
              <mxPoint x="1460" y="84" />
              <mxPoint x="1460" y="266" />
            </Array>
          </mxGeometry>
        </mxCell>
        <mxCell id="wCrlUD02cVlDB_2Lq__C-24" value="" style="endArrow=open;endFill=1;endSize=12;html=1;rounded=0;exitX=0.5;exitY=1;exitDx=0;exitDy=0;" parent="1" source="wCrlUD02cVlDB_2Lq__C-7" target="wCrlUD02cVlDB_2Lq__C-8" edge="1">
          <mxGeometry width="160" relative="1" as="geometry">
            <mxPoint x="1541" y="211" as="sourcePoint" />
            <mxPoint x="1701" y="211" as="targetPoint" />
          </mxGeometry>
        </mxCell>
        <mxCell id="wCrlUD02cVlDB_2Lq__C-25" value="Use" style="endArrow=open;endSize=12;dashed=1;html=1;rounded=0;exitX=0.5;exitY=1;exitDx=0;exitDy=0;entryX=0;entryY=0.5;entryDx=0;entryDy=0;" parent="1" source="wCrlUD02cVlDB_2Lq__C-15" target="wCrlUD02cVlDB_2Lq__C-10" edge="1">
          <mxGeometry width="160" relative="1" as="geometry">
            <mxPoint x="890" y="420" as="sourcePoint" />
            <mxPoint x="1050" y="420" as="targetPoint" />
            <Array as="points">
              <mxPoint x="894" y="651" />
            </Array>
          </mxGeometry>
        </mxCell>
        <mxCell id="wCrlUD02cVlDB_2Lq__C-26" value="TUICallState" style="swimlane;fontStyle=1;align=center;verticalAlign=top;childLayout=stackLayout;horizontal=1;startSize=26;horizontalStack=0;resizeParent=1;resizeParentMax=0;resizeLast=0;collapsible=1;marginBottom=0;" parent="1" vertex="1">
          <mxGeometry x="440" y="600" width="160" height="110" as="geometry" />
        </mxCell>
        <mxCell id="wCrlUD02cVlDB_2Lq__C-27" value="+ Map&lt;event, Observer&gt;" style="text;strokeColor=none;fillColor=none;align=left;verticalAlign=top;spacingLeft=4;spacingRight=4;overflow=hidden;rotatable=0;points=[[0,0.5],[1,0.5]];portConstraint=eastwest;" parent="wCrlUD02cVlDB_2Lq__C-26" vertex="1">
          <mxGeometry y="26" width="160" height="26" as="geometry" />
        </mxCell>
        <mxCell id="wCrlUD02cVlDB_2Lq__C-28" value="" style="line;strokeWidth=1;fillColor=none;align=left;verticalAlign=middle;spacingTop=-1;spacingLeft=3;spacingRight=3;rotatable=0;labelPosition=right;points=[];portConstraint=eastwest;strokeColor=inherit;" parent="wCrlUD02cVlDB_2Lq__C-26" vertex="1">
          <mxGeometry y="52" width="160" height="8" as="geometry" />
        </mxCell>
        <mxCell id="wCrlUD02cVlDB_2Lq__C-29" value="+ registerEvent(event)&#xa;+ sendEvent(event)" style="text;strokeColor=none;fillColor=none;align=left;verticalAlign=top;spacingLeft=4;spacingRight=4;overflow=hidden;rotatable=0;points=[[0,0.5],[1,0.5]];portConstraint=eastwest;" parent="wCrlUD02cVlDB_2Lq__C-26" vertex="1">
          <mxGeometry y="60" width="160" height="50" as="geometry" />
        </mxCell>
        <mxCell id="wCrlUD02cVlDB_2Lq__C-30" value="Use" style="endArrow=open;endSize=12;dashed=1;html=1;rounded=0;exitX=0;exitY=0.75;exitDx=0;exitDy=0;entryX=1;entryY=0.5;entryDx=0;entryDy=0;" parent="1" source="wCrlUD02cVlDB_2Lq__C-10" target="wCrlUD02cVlDB_2Lq__C-29" edge="1">
          <mxGeometry width="160" relative="1" as="geometry">
            <mxPoint x="790" y="580" as="sourcePoint" />
            <mxPoint x="950" y="580" as="targetPoint" />
          </mxGeometry>
        </mxCell>
        <mxCell id="wCrlUD02cVlDB_2Lq__C-31" value="Use" style="endArrow=open;endSize=12;dashed=1;html=1;rounded=0;exitX=0.25;exitY=1;exitDx=0;exitDy=0;entryX=0.5;entryY=0;entryDx=0;entryDy=0;" parent="1" source="wCrlUD02cVlDB_2Lq__C-15" target="wCrlUD02cVlDB_2Lq__C-26" edge="1">
          <mxGeometry x="-0.1598" y="54" width="160" relative="1" as="geometry">
            <mxPoint x="790" y="580" as="sourcePoint" />
            <mxPoint x="950" y="580" as="targetPoint" />
            <Array as="points">
              <mxPoint x="847" y="540" />
              <mxPoint x="520" y="540" />
            </Array>
            <mxPoint as="offset" />
          </mxGeometry>
        </mxCell>
        <mxCell id="wCrlUD02cVlDB_2Lq__C-32" value="Use" style="endArrow=open;endSize=12;dashed=1;html=1;rounded=0;exitX=1;exitY=0.5;exitDx=0;exitDy=0;entryX=0.25;entryY=1;entryDx=0;entryDy=0;" parent="1" source="wCrlUD02cVlDB_2Lq__C-18" target="wCrlUD02cVlDB_2Lq__C-8" edge="1">
          <mxGeometry width="160" relative="1" as="geometry">
            <mxPoint x="890" y="530" as="sourcePoint" />
            <mxPoint x="1050" y="530" as="targetPoint" />
            <Array as="points">
              <mxPoint x="1230" y="410" />
              <mxPoint x="1230" y="370" />
              <mxPoint x="1413" y="370" />
              <mxPoint x="1563" y="370" />
            </Array>
          </mxGeometry>
        </mxCell>
        <mxCell id="wCrlUD02cVlDB_2Lq__C-33" value="" style="edgeStyle=orthogonalEdgeStyle;rounded=0;orthogonalLoop=1;jettySize=auto;html=1;" parent="1" source="wCrlUD02cVlDB_2Lq__C-34" target="wCrlUD02cVlDB_2Lq__C-18" edge="1">
          <mxGeometry relative="1" as="geometry" />
        </mxCell>
        <mxCell id="wCrlUD02cVlDB_2Lq__C-34" value="&lt;p style=&quot;margin: 0px ; margin-top: 4px ; text-align: center&quot;&gt;&lt;b&gt;FloatViewService&lt;/b&gt;&lt;/p&gt;&lt;hr size=&quot;1&quot;&gt;&lt;p style=&quot;margin: 0px ; margin-left: 4px&quot;&gt;&lt;/p&gt;&lt;p style=&quot;margin: 0px ; margin-left: 4px&quot;&gt;&lt;/p&gt;&lt;div style=&quot;&quot;&gt;&amp;nbsp;+&amp;nbsp;startFloatService()&lt;/div&gt;&lt;div style=&quot;&quot;&gt;&amp;nbsp;+&amp;nbsp;stopFloatService()&lt;/div&gt;" style="verticalAlign=top;align=left;overflow=fill;fontSize=12;fontFamily=Helvetica;html=1;fontStyle=0" parent="1" vertex="1">
          <mxGeometry x="1023.57" y="272" width="176.43" height="68" as="geometry" />
        </mxCell>
        <mxCell id="wCrlUD02cVlDB_2Lq__C-35" value="" style="endArrow=open;endFill=1;endSize=12;html=1;rounded=0;exitX=0.5;exitY=1;exitDx=0;exitDy=0;" parent="1" source="wCrlUD02cVlDB_2Lq__C-34" target="wCrlUD02cVlDB_2Lq__C-18" edge="1">
          <mxGeometry width="160" relative="1" as="geometry">
            <mxPoint x="890" y="270" as="sourcePoint" />
            <mxPoint x="1050" y="270" as="targetPoint" />
          </mxGeometry>
        </mxCell>
        <mxCell id="wCrlUD02cVlDB_2Lq__C-36" value="&lt;p style=&quot;margin: 0px ; margin-top: 4px ; text-align: center&quot;&gt;&lt;b&gt;SwitchAudioView&lt;/b&gt;&lt;/p&gt;&lt;hr size=&quot;1&quot;&gt;&lt;p style=&quot;margin: 0px ; margin-left: 4px&quot;&gt;&lt;/p&gt;&lt;p style=&quot;margin: 0px ; margin-left: 4px&quot;&gt;&lt;/p&gt;&lt;span style=&quot;font-weight: 700 ; text-align: center&quot;&gt;&amp;nbsp;&lt;/span&gt;&lt;span style=&quot;text-align: center&quot;&gt;+&amp;nbsp;&lt;/span&gt;&lt;span style=&quot;text-align: center&quot;&gt;mSwitchAudioViewModel&lt;br&gt;&lt;/span&gt;" style="verticalAlign=top;align=left;overflow=fill;fontSize=12;fontFamily=Helvetica;html=1;fontStyle=0" parent="1" vertex="1">
          <mxGeometry x="597.66" y="281" width="176.34" height="59" as="geometry" />
        </mxCell>
        <mxCell id="wCrlUD02cVlDB_2Lq__C-37" value="&lt;p style=&quot;margin: 0px ; margin-top: 4px ; text-align: center&quot;&gt;&lt;b&gt;SwitchAudioViewModel&lt;/b&gt;&lt;/p&gt;&lt;hr size=&quot;1&quot;&gt;&lt;p style=&quot;margin: 0px ; margin-left: 4px&quot;&gt;&lt;/p&gt;&lt;p style=&quot;margin: 0px ; margin-left: 4px&quot;&gt;&lt;/p&gt;&lt;span style=&quot;font-weight: 700 ; text-align: center&quot;&gt;&amp;nbsp;&lt;/span&gt;&lt;span style=&quot;text-align: center;&quot;&gt;+ switchAudioView():void&lt;/span&gt;&lt;span style=&quot;text-align: center&quot;&gt;&lt;br&gt;&lt;/span&gt;" style="verticalAlign=top;align=left;overflow=fill;fontSize=12;fontFamily=Helvetica;html=1;fontStyle=0" parent="1" vertex="1">
          <mxGeometry x="600" y="420" width="170" height="67" as="geometry" />
        </mxCell>
        <mxCell id="wCrlUD02cVlDB_2Lq__C-38" value="Use" style="endArrow=open;endSize=12;dashed=1;html=1;rounded=0;entryX=0.539;entryY=-0.003;entryDx=0;entryDy=0;entryPerimeter=0;" parent="1" target="wCrlUD02cVlDB_2Lq__C-36" edge="1">
          <mxGeometry width="160" relative="1" as="geometry">
            <mxPoint x="1050" y="210" as="sourcePoint" />
            <mxPoint x="795.12" y="281" as="targetPoint" />
            <Array as="points">
              <mxPoint x="1050" y="250" />
              <mxPoint x="693" y="250" />
            </Array>
          </mxGeometry>
        </mxCell>
        <mxCell id="wCrlUD02cVlDB_2Lq__C-39" value="" style="endArrow=diamondThin;endFill=0;endSize=24;html=1;rounded=0;exitX=0.5;exitY=0;exitDx=0;exitDy=0;entryX=0.5;entryY=1;entryDx=0;entryDy=0;" parent="1" source="wCrlUD02cVlDB_2Lq__C-37" target="wCrlUD02cVlDB_2Lq__C-36" edge="1">
          <mxGeometry width="160" relative="1" as="geometry">
            <mxPoint x="658" y="380" as="sourcePoint" />
            <mxPoint x="654" y="340" as="targetPoint" />
          </mxGeometry>
        </mxCell>
        <mxCell id="wCrlUD02cVlDB_2Lq__C-40" value="&lt;p style=&quot;margin: 0px ; margin-top: 4px ; text-align: center&quot;&gt;&lt;b&gt;UserView&lt;/b&gt;&lt;/p&gt;&lt;hr size=&quot;1&quot;&gt;&lt;p style=&quot;margin: 0px ; margin-left: 4px&quot;&gt;&lt;/p&gt;&lt;p style=&quot;margin: 0px ; margin-left: 4px&quot;&gt;&lt;/p&gt;&lt;span style=&quot;font-weight: 700 ; text-align: center&quot;&gt;&amp;nbsp;&lt;/span&gt;&lt;span style=&quot;text-align: center&quot;&gt;+&amp;nbsp;&lt;/span&gt;&lt;span style=&quot;text-align: center&quot;&gt;mUserViewModel&lt;br&gt;&lt;/span&gt;" style="verticalAlign=top;align=left;overflow=fill;fontSize=12;fontFamily=Helvetica;html=1;fontStyle=0" parent="1" vertex="1">
          <mxGeometry x="212.65999999999997" y="281" width="176.34" height="59" as="geometry" />
        </mxCell>
        <mxCell id="wCrlUD02cVlDB_2Lq__C-41" value="&lt;p style=&quot;margin: 0px ; margin-top: 4px ; text-align: center&quot;&gt;&lt;b&gt;UserViewModel&lt;/b&gt;&lt;/p&gt;&lt;hr size=&quot;1&quot;&gt;&lt;p style=&quot;margin: 0px ; margin-left: 4px&quot;&gt;&lt;/p&gt;&lt;p style=&quot;margin: 0px ; margin-left: 4px&quot;&gt;&lt;/p&gt;&lt;span style=&quot;font-weight: 700 ; text-align: center&quot;&gt;&amp;nbsp;&lt;/span&gt;&lt;span style=&quot;text-align: center&quot;&gt;&lt;br&gt;&lt;/span&gt;" style="verticalAlign=top;align=left;overflow=fill;fontSize=12;fontFamily=Helvetica;html=1;fontStyle=0" parent="1" vertex="1">
          <mxGeometry x="215" y="420" width="170" height="67" as="geometry" />
        </mxCell>
        <mxCell id="wCrlUD02cVlDB_2Lq__C-42" value="" style="endArrow=diamondThin;endFill=0;endSize=24;html=1;rounded=0;exitX=0.5;exitY=0;exitDx=0;exitDy=0;entryX=0.5;entryY=1;entryDx=0;entryDy=0;" parent="1" source="wCrlUD02cVlDB_2Lq__C-41" target="wCrlUD02cVlDB_2Lq__C-40" edge="1">
          <mxGeometry width="160" relative="1" as="geometry">
            <mxPoint x="273" y="380" as="sourcePoint" />
            <mxPoint x="269" y="340" as="targetPoint" />
          </mxGeometry>
        </mxCell>
        <mxCell id="wCrlUD02cVlDB_2Lq__C-43" value="Use" style="endArrow=open;endSize=12;dashed=1;html=1;rounded=0;exitX=0;exitY=0.75;exitDx=0;exitDy=0;entryX=0.5;entryY=0;entryDx=0;entryDy=0;" parent="1" source="wCrlUD02cVlDB_2Lq__C-6" target="wCrlUD02cVlDB_2Lq__C-40" edge="1">
          <mxGeometry width="160" relative="1" as="geometry">
            <mxPoint x="1060" y="220" as="sourcePoint" />
            <mxPoint x="500" y="280" as="targetPoint" />
            <Array as="points">
              <mxPoint x="300" y="200" />
            </Array>
          </mxGeometry>
        </mxCell>
        <mxCell id="wCrlUD02cVlDB_2Lq__C-44" value="&lt;p style=&quot;margin: 0px ; margin-top: 4px ; text-align: center&quot;&gt;&lt;b&gt;TimerView&lt;/b&gt;&lt;/p&gt;&lt;hr size=&quot;1&quot;&gt;&lt;p style=&quot;margin: 0px ; margin-left: 4px&quot;&gt;&lt;/p&gt;&lt;p style=&quot;margin: 0px ; margin-left: 4px&quot;&gt;&lt;/p&gt;&lt;span style=&quot;font-weight: 700 ; text-align: center&quot;&gt;&amp;nbsp;&lt;/span&gt;&lt;span style=&quot;text-align: center&quot;&gt;+&amp;nbsp;&lt;/span&gt;&lt;span style=&quot;text-align: center&quot;&gt;mTimerViewModel&lt;br&gt;&lt;/span&gt;" style="verticalAlign=top;align=left;overflow=fill;fontSize=12;fontFamily=Helvetica;html=1;fontStyle=0" parent="1" vertex="1">
          <mxGeometry x="408.65999999999997" y="281" width="176.34" height="59" as="geometry" />
        </mxCell>
        <mxCell id="wCrlUD02cVlDB_2Lq__C-45" value="&lt;p style=&quot;margin: 0px ; margin-top: 4px ; text-align: center&quot;&gt;&lt;b&gt;TimerViewModel&lt;/b&gt;&lt;/p&gt;&lt;hr size=&quot;1&quot;&gt;&lt;p style=&quot;margin: 0px ; margin-left: 4px&quot;&gt;&lt;/p&gt;&lt;p style=&quot;margin: 0px ; margin-left: 4px&quot;&gt;&lt;/p&gt;&lt;span style=&quot;font-weight: 700 ; text-align: center&quot;&gt;&amp;nbsp;&lt;/span&gt;&lt;span style=&quot;text-align: center&quot;&gt;&lt;br&gt;&lt;/span&gt;" style="verticalAlign=top;align=left;overflow=fill;fontSize=12;fontFamily=Helvetica;html=1;fontStyle=0" parent="1" vertex="1">
          <mxGeometry x="411" y="420" width="170" height="67" as="geometry" />
        </mxCell>
        <mxCell id="wCrlUD02cVlDB_2Lq__C-46" value="" style="endArrow=diamondThin;endFill=0;endSize=24;html=1;rounded=0;exitX=0.5;exitY=0;exitDx=0;exitDy=0;entryX=0.5;entryY=1;entryDx=0;entryDy=0;" parent="1" source="wCrlUD02cVlDB_2Lq__C-45" target="wCrlUD02cVlDB_2Lq__C-44" edge="1">
          <mxGeometry width="160" relative="1" as="geometry">
            <mxPoint x="469" y="380" as="sourcePoint" />
            <mxPoint x="465" y="340" as="targetPoint" />
          </mxGeometry>
        </mxCell>
        <mxCell id="wCrlUD02cVlDB_2Lq__C-47" value="&lt;p style=&quot;margin: 0px ; margin-top: 4px ; text-align: center&quot;&gt;&lt;b&gt;CallingSingleView&lt;/b&gt;&lt;/p&gt;&lt;hr size=&quot;1&quot;&gt;&lt;p style=&quot;margin: 0px ; margin-left: 4px&quot;&gt;&lt;/p&gt;&lt;p style=&quot;margin: 0px ; margin-left: 4px&quot;&gt;&lt;/p&gt;&lt;span style=&quot;font-weight: 700 ; text-align: center&quot;&gt;&amp;nbsp;&lt;/span&gt;&lt;span style=&quot;text-align: center&quot;&gt;+ mCallingSingleViewModel&lt;/span&gt;&lt;span style=&quot;text-align: center&quot;&gt;&lt;br&gt;&lt;/span&gt;" style="verticalAlign=top;align=left;overflow=fill;fontSize=12;fontFamily=Helvetica;html=1;fontStyle=0" parent="1" vertex="1">
          <mxGeometry x="1019" y="42" width="180.5" height="70" as="geometry" />
        </mxCell>
        <mxCell id="wCrlUD02cVlDB_2Lq__C-48" value="&lt;p style=&quot;margin: 0px ; margin-top: 4px ; text-align: center&quot;&gt;&lt;b&gt;CallingSingleViewModel&lt;/b&gt;&lt;/p&gt;&lt;hr size=&quot;1&quot;&gt;&lt;p style=&quot;margin: 0px ; margin-left: 4px&quot;&gt;&lt;/p&gt;&lt;p style=&quot;margin: 0px ; margin-left: 4px&quot;&gt;&lt;/p&gt;&lt;div style=&quot;&quot;&gt;&amp;nbsp;&lt;/div&gt;" style="verticalAlign=top;align=left;overflow=fill;fontSize=12;fontFamily=Helvetica;html=1;fontStyle=0" parent="1" vertex="1">
          <mxGeometry x="1019.32" y="-65" width="180.68" height="58" as="geometry" />
        </mxCell>
        <mxCell id="wCrlUD02cVlDB_2Lq__C-49" value="Use" style="endArrow=open;endSize=12;dashed=1;html=1;rounded=0;exitX=0.5;exitY=0;exitDx=0;exitDy=0;entryX=0.5;entryY=1;entryDx=0;entryDy=0;" parent="1" source="wCrlUD02cVlDB_2Lq__C-6" target="wCrlUD02cVlDB_2Lq__C-47" edge="1">
          <mxGeometry width="160" relative="1" as="geometry">
            <mxPoint x="1119.25" y="225.5" as="sourcePoint" />
            <mxPoint x="1121.7850000000003" y="282" as="targetPoint" />
          </mxGeometry>
        </mxCell>
        <mxCell id="wCrlUD02cVlDB_2Lq__C-50" value="&lt;p style=&quot;margin: 0px ; margin-top: 4px ; text-align: center&quot;&gt;&lt;b&gt;CallingGroupView&lt;/b&gt;&lt;/p&gt;&lt;hr size=&quot;1&quot;&gt;&lt;p style=&quot;margin: 0px ; margin-left: 4px&quot;&gt;&lt;/p&gt;&lt;p style=&quot;margin: 0px ; margin-left: 4px&quot;&gt;&lt;/p&gt;&lt;span style=&quot;font-weight: 700 ; text-align: center&quot;&gt;&amp;nbsp;&lt;/span&gt;&lt;span style=&quot;text-align: center&quot;&gt;+ mCallingGroupViewModel&lt;/span&gt;&lt;span style=&quot;text-align: center&quot;&gt;&lt;br&gt;&lt;/span&gt;" style="verticalAlign=top;align=left;overflow=fill;fontSize=12;fontFamily=Helvetica;html=1;fontStyle=0" parent="1" vertex="1">
          <mxGeometry x="1239.41" y="137" width="180.5" height="70" as="geometry" />
        </mxCell>
        <mxCell id="wCrlUD02cVlDB_2Lq__C-51" value="&lt;p style=&quot;margin: 0px ; margin-top: 4px ; text-align: center&quot;&gt;&lt;b&gt;CallingGroupViewModel&lt;/b&gt;&lt;/p&gt;&lt;hr size=&quot;1&quot;&gt;&lt;p style=&quot;margin: 0px ; margin-left: 4px&quot;&gt;&lt;/p&gt;&lt;p style=&quot;margin: 0px ; margin-left: 4px&quot;&gt;&lt;/p&gt;&lt;div style=&quot;&quot;&gt;&amp;nbsp;&lt;/div&gt;" style="verticalAlign=top;align=left;overflow=fill;fontSize=12;fontFamily=Helvetica;html=1;fontStyle=0" parent="1" vertex="1">
          <mxGeometry x="1239.2500000000002" y="277" width="180.68" height="58" as="geometry" />
        </mxCell>
        <mxCell id="wCrlUD02cVlDB_2Lq__C-52" value="Use" style="endArrow=open;endSize=12;dashed=1;html=1;rounded=0;exitX=1;exitY=0.5;exitDx=0;exitDy=0;entryX=0;entryY=0.5;entryDx=0;entryDy=0;" parent="1" source="wCrlUD02cVlDB_2Lq__C-6" target="wCrlUD02cVlDB_2Lq__C-50" edge="1">
          <mxGeometry width="160" relative="1" as="geometry">
            <mxPoint x="1303.25" y="323" as="sourcePoint" />
            <mxPoint x="1315.7850000000003" y="462" as="targetPoint" />
          </mxGeometry>
        </mxCell>
        <mxCell id="wCrlUD02cVlDB_2Lq__C-53" value="" style="endArrow=diamondThin;endFill=0;endSize=24;html=1;rounded=0;entryX=0.5;entryY=0;entryDx=0;entryDy=0;" parent="1" source="wCrlUD02cVlDB_2Lq__C-48" target="wCrlUD02cVlDB_2Lq__C-47" edge="1">
          <mxGeometry width="160" relative="1" as="geometry">
            <mxPoint x="1123.25" y="503.5" as="sourcePoint" />
            <mxPoint x="1123.5" y="454" as="targetPoint" />
          </mxGeometry>
        </mxCell>
        <mxCell id="wCrlUD02cVlDB_2Lq__C-54" value="" style="endArrow=diamondThin;endFill=0;endSize=24;html=1;rounded=0;exitX=0.5;exitY=0;exitDx=0;exitDy=0;" parent="1" source="wCrlUD02cVlDB_2Lq__C-51" target="wCrlUD02cVlDB_2Lq__C-50" edge="1">
          <mxGeometry width="160" relative="1" as="geometry">
            <mxPoint x="1119.5075641025642" y="3" as="sourcePoint" />
            <mxPoint x="1119.25" y="52" as="targetPoint" />
          </mxGeometry>
        </mxCell>
        <mxCell id="wCrlUD02cVlDB_2Lq__C-55" value="Use" style="endArrow=open;endSize=12;dashed=1;html=1;rounded=0;exitX=1;exitY=0.5;exitDx=0;exitDy=0;entryX=0;entryY=0.5;entryDx=0;entryDy=0;" parent="1" source="wCrlUD02cVlDB_2Lq__C-50" target="wCrlUD02cVlDB_2Lq__C-8" edge="1">
          <mxGeometry width="160" relative="1" as="geometry">
            <mxPoint x="900" y="230" as="sourcePoint" />
            <mxPoint x="1060" y="230" as="targetPoint" />
            <Array as="points">
              <mxPoint x="1450" y="172" />
              <mxPoint x="1450" y="299" />
            </Array>
          </mxGeometry>
        </mxCell>
        <mxCell id="wCrlUD02cVlDB_2Lq__C-56" value="PermissionRequest" style="swimlane;fontStyle=1;align=center;verticalAlign=top;childLayout=stackLayout;horizontal=1;startSize=26;horizontalStack=0;resizeParent=1;resizeParentMax=0;resizeLast=0;collapsible=1;marginBottom=0;" parent="1" vertex="1">
          <mxGeometry x="747" y="-38.5" width="160" height="60" as="geometry" />
        </mxCell>
        <mxCell id="wCrlUD02cVlDB_2Lq__C-57" value="" style="line;strokeWidth=1;fillColor=none;align=left;verticalAlign=middle;spacingTop=-1;spacingLeft=3;spacingRight=3;rotatable=0;labelPosition=right;points=[];portConstraint=eastwest;strokeColor=inherit;" parent="wCrlUD02cVlDB_2Lq__C-56" vertex="1">
          <mxGeometry y="26" width="160" height="8" as="geometry" />
        </mxCell>
        <mxCell id="wCrlUD02cVlDB_2Lq__C-58" value="+ requestPermission()" style="text;strokeColor=none;fillColor=none;align=left;verticalAlign=top;spacingLeft=4;spacingRight=4;overflow=hidden;rotatable=0;points=[[0,0.5],[1,0.5]];portConstraint=eastwest;" parent="wCrlUD02cVlDB_2Lq__C-56" vertex="1">
          <mxGeometry y="34" width="160" height="26" as="geometry" />
        </mxCell>
        <mxCell id="wCrlUD02cVlDB_2Lq__C-59" value="Use" style="endArrow=open;endSize=12;dashed=1;html=1;rounded=0;exitX=0.75;exitY=0;exitDx=0;exitDy=0;entryX=0;entryY=0.5;entryDx=0;entryDy=0;" parent="1" source="wCrlUD02cVlDB_2Lq__C-3" target="wCrlUD02cVlDB_2Lq__C-56" edge="1">
          <mxGeometry width="160" relative="1" as="geometry">
            <mxPoint x="900" y="110" as="sourcePoint" />
            <mxPoint x="700" y="-10" as="targetPoint" />
            <Array as="points">
              <mxPoint x="598" y="90" />
              <mxPoint x="700" y="90" />
              <mxPoint x="700" y="-10" />
            </Array>
          </mxGeometry>
        </mxCell>
      </root>
    </mxGraphModel>
  </diagram>
</mxfile>
